<?xml version="1.0" encoding="UTF-8"?><svg id="Layer_1" xmlns="http://www.w3.org/2000/svg" width="636.36" height="635.5" viewBox="0 0 636.36 635.5"><path d="M636.36,274.75V.03s-90.91-.03-90.91-.03v207.39c37.06,10.78,69.6,34.6,90.91,67.37Z"/><path d="M544.47,452.44h91.4v30.52c-24.37,27.53-55.96,46.77-91.4,55.67v-86.19Z"/><path d="M635.36,452.94v29.83c-24.14,27.22-55.37,46.29-90.4,55.22v-85.05h90.4M636.36,451.94h-92.4v87.33c36.35-8.99,68.38-28.93,92.4-56.12v-31.21h0Z"/><path d="M545.46,518.35v26.24s90.91-.25,90.91-.25v-92.4c-20.11,30.83-51.18,55.03-90.91,66.41Z"/><path d="M454.54,596.18v-77.2c-44.22-12.54-80.76-43.58-100.51-84.46h-81.31v23.12c29.11,71.29,91.04,125.25,166.67,143.81,4.91-1.98,9.97-3.74,15.14-5.27Z"/><polygon points="454.5 544.59 454.54 635.5 363.64 635.5 363.64 544.59 454.5 544.59"/><path d="M488.03,308.28c31.7-7.09,60.54,13,66.99,41.89,6.89,30.86-12.13,60.64-42.5,67.57-29.55,6.74-59.38-11.47-66.78-40.91-7.52-29.9,9.75-61.27,42.29-68.54Z"/><polygon points="90.91 544.34 0 544.59 0 0 90.91 .03 90.91 544.34"/><polygon points=".6 544.59 .43 453.69 363.64 453.68 363.62 544.59 .6 544.59"/><polygon points="363.64 544.34 272.73 544.59 272.73 0 363.63 .03 363.64 544.34"/></svg>