<svg width="116" height="27" viewBox="2 17 116 27" fill="none" xmlns="http://www.w3.org/2000/svg">
<path d="M69.1474 44C71.3698 44 73.1955 43.0043 74.4653 41.1277L74.7035 43.617H79.0688V17H74.3463V26.6128C73.1559 24.8894 71.4097 23.9702 69.346 23.9702C64.7821 23.9702 61.6074 27.6851 61.6074 34.1192C61.6074 40.4766 64.7029 44 69.1474 44ZM98.1576 42.3149V38.6C96.6891 39.5574 94.2286 40.4 91.9267 40.4C88.4743 40.4 87.1646 38.8298 86.9663 35.6128H98.3558V33.2C98.3558 26.4979 95.3002 23.9702 90.5777 23.9702C84.8231 23.9702 82.0848 28.2213 82.0848 34.0425C82.0848 40.7447 85.4979 44 91.5299 44C94.5459 44 96.7683 43.234 98.1576 42.3149ZM38.7487 30.4809C38.7487 25.8085 36.2881 24.0468 31.2879 24.0468C28.1924 24.0468 25.6923 25.3106 24.2636 26.3064V30.2511C25.7717 29.0638 28.0734 27.6851 30.7323 27.6851C32.9944 27.6851 34.0261 28.4511 34.0261 30.5191V31.7447H33.2721C26.0494 31.7447 22.835 34.0042 22.835 38.0255C22.835 41.7404 25.2954 43.8851 28.9465 43.8851C31.7244 43.8851 32.9149 43.0043 33.8279 42.0851H34.0261C34.0657 42.583 34.2247 43.234 34.3833 43.617H38.9868C38.8282 42.0468 38.7487 40.4766 38.7487 38.9064V30.4809ZM47.3207 29.7915C48.1938 28.7575 49.5827 27.8766 51.2893 27.8766C52.9559 27.8766 53.7099 28.566 53.7099 30.0213V43.617H58.4325V29.5617C58.4325 25.7319 56.845 24.0468 52.9958 24.0468C50.1781 24.0468 48.5111 25.0426 47.5589 25.9617H47.3207L47.2016 24.3532H42.5982V43.617H47.3207V29.7915ZM112.682 43.617H118L111.492 33.6979L117.127 24.3532H112.404L108.992 30.1745L105.182 24.3532H99.8638L105.896 33.583L99.6257 43.617H104.428L108.436 37.1064L112.682 43.617ZM70.5367 27.5702C73.0764 27.5702 74.3463 29.5234 74.3463 33.966C74.3463 38.4468 72.9969 40.4 70.3381 40.4C67.7585 40.4 66.4886 38.4851 66.4886 34.1192C66.4886 29.5617 67.838 27.5702 70.5367 27.5702ZM90.4982 27.5702C92.8397 27.5702 93.5538 29.4468 93.5538 31.8596V32.2426H86.9663C87.0854 29.1787 88.2362 27.5702 90.4982 27.5702ZM34.0261 39.0213C33.4308 39.8638 32.3197 40.5532 30.6529 40.5532C28.6687 40.5532 27.6765 39.4425 27.6765 37.7575C27.6765 35.5362 29.3036 34.7702 33.3516 34.7702H34.0261V39.0213Z" fill="black"/>
<path d="M15.8501 43.617V39.0979C15.8501 35.6894 15.4136 34.6936 14.0643 31.8596L7.00034 17H2L11.0482 35.9957V43.617H15.8501ZM18.9853 29.8681L24.8587 17H19.9774L14.104 29.8681H18.9853Z" fill="black"/>
</svg>
